<svg xmlns="http://www.w3.org/2000/svg" width="591" height="591" opacity=".5" viewBox="0 0 591 591"><g id="compact-disc" transform="translate(-0.014)"><path id="Path_8" d="M26.172,26.172a4,4,0,1,0,5.656,0A4.093,4.093,0,0,0,26.172,26.172Z" data-name="Path 8" transform="translate(266.514 266.702)"/><path id="Path_9" d="M504.562,86.551a295.735,295.735,0,0,0-418.1,0c-115.269,115.214-115.269,302.684,0,417.9a295.735,295.735,0,0,0,418.1,0C619.831,389.235,619.831,201.765,504.562,86.551Zm-7.208,410.694a285.414,285.414,0,0,1-64.918,48.594L354.193,402.8a122.387,122.387,0,0,1-145.18-20.838c-39.249-39.23-46.12-98.677-20.776-145.08L45.056,158.643A285.277,285.277,0,0,1,158.592,45.161l78.233,143.053a122.374,122.374,0,0,1,145.19,20.828c39.249,39.23,46.12,98.677,20.776,145.08l143.182,78.236A285.3,285.3,0,0,1,497.354,497.245Z" data-name="Path 9" transform="translate(0)"/></g></svg>