<svg xmlns="http://www.w3.org/2000/svg" width="37.876" height="22.5" viewBox="0 0 37.876 22.5">
  <path id="Icon_awesome-vk" data-name="Icon awesome-vk" d="M38.32,8.276c.26-.879,0-1.526-1.252-1.526H32.927a1.778,1.778,0,0,0-1.8,1.174A34.7,34.7,0,0,1,26.037,16.4c-.963.963-1.406,1.273-1.934,1.273-.26,0-.661-.309-.661-1.188V8.276c0-1.055-.3-1.526-1.167-1.526H15.764a1,1,0,0,0-1.055.949c0,1,1.491,1.23,1.645,4.043v6.1c0,1.336-.239,1.582-.766,1.582-1.406,0-4.823-5.161-6.848-11.067-.408-1.146-.809-1.61-1.87-1.61H2.728c-1.181,0-1.42.555-1.42,1.174,0,1.1,1.406,6.546,6.546,13.746,3.424,4.915,8.248,7.58,12.635,7.58,2.637,0,2.96-.591,2.96-1.61,0-4.7-.239-5.14,1.083-5.14.612,0,1.666.309,4.127,2.679,2.813,2.813,3.277,4.071,4.852,4.071h4.141c1.181,0,1.779-.591,1.434-1.758-.787-2.454-6.11-7.5-6.349-7.84-.612-.788-.436-1.139,0-1.842.007-.007,5.063-7.123,5.583-9.534Z" transform="translate(-1.308 -6.75)"/>
</svg>
