<svg xmlns="http://www.w3.org/2000/svg" width="500.486" height="469.797" viewBox="0 0 500.486 469.797"><g id="shopping-cart" transform="translate(0 -27.63)"><path id="Path_11" d="M490.048,107.925a47.584,47.584,0,0,0-36.836-17.073H145.587a46.54,46.54,0,0,0-24.42,6.933L105.439,42.841A20.923,20.923,0,0,0,85.365,27.63H15.831A15.831,15.831,0,0,0,0,43.462v1.656A15.831,15.831,0,0,0,15.831,60.949H75.639l30.525,107.922,42.01,148.9A54.948,54.948,0,0,0,157.9,425.9a53.721,53.721,0,1,0,104.4,17.8,52.949,52.949,0,0,0-3-17.694h62.912A53.75,53.75,0,1,0,426.723,443.7c0-29.9-24.834-53.806-54.634-53.806H161.935c-10.244,0-18.936-7.967-19.349-18.108a18.809,18.809,0,0,1,18.832-19.556H412.133a46.583,46.583,0,0,0,45.114-35.284l41.8-168.247A46.252,46.252,0,0,0,490.048,107.925ZM373.02,425.9a17.694,17.694,0,1,1-17.694,17.694A17.753,17.753,0,0,1,373.02,425.9Zm-164.419,0a17.694,17.694,0,1,1-17.694,17.694A17.753,17.753,0,0,1,208.6,425.9ZM143.621,168.664l-8.071-28.455a9.926,9.926,0,0,1,1.759-9.106,10.189,10.189,0,0,1,8.278-4.139h33.732l9.209,41.8H143.621v-.1Zm10.14,36.009h42.631l8.485,38.7H164.626ZM192.977,316.01a10.4,10.4,0,0,1-10.037-7.657l-8.174-28.972h37.975l8.071,36.526H192.977v.1Zm90.125,0H257.648l-8.071-36.526H283V316.01Zm0-72.638H241.713l-8.485-38.7H283.1Zm0-74.708H225.364l-9.209-41.8H283.1ZM347.669,316.01H319.214V279.484h36.112Zm15.314-72.638H319.214v-38.7h51.943Zm-43.769-74.708v-41.8h68.292l-8.8,41.8ZM422.377,308.146a10.415,10.415,0,0,1-10.14,7.967H384.506l7.76-36.526h37.25Zm16.038-64.774h-38.6l8.174-38.7h40.044ZM464.077,139.8l-7.14,28.766H415.548l8.8-41.8h29.593a9.925,9.925,0,0,1,8.174,4.035A10.046,10.046,0,0,1,464.077,139.8Z" data-name="Path 11"/></g></svg>