<svg xmlns="http://www.w3.org/2000/svg" width="141" height="67" viewBox="0 0 141 67"><defs><style>.cls-1{fill-rule:evenodd}.cls-2{fill:none}</style></defs><g id="VHS-Logo" transform="translate(-8 -7)"><rect id="Rectangle_6" width="12.066" height="54.305" data-name="Rectangle 6" transform="translate(58.092 12.995)"/><rect id="Rectangle_7" width="12.066" height="54.305" data-name="Rectangle 7" transform="translate(84.052 12.995)"/><path id="Path_4" d="M27,24H40.529l14.26,54.658H41.26Z" class="cls-1" data-name="Path 4" transform="translate(-12.053 -11.005)"/><path id="Path_5" d="M99.282,24H91.969a1.554,1.554,0,0,0,0,1.763c.731,2.116.366,4.584,0,6.7L81,78.658h5.485Z" class="cls-1" data-name="Path 5" transform="translate(-46.309 -11.005)"/><path id="Path_6" d="M167.982,123H141.291L138,127.937h21.207C162.5,127.937,166.885,125.468,167.982,123Z" class="cls-1" data-name="Path 6" transform="translate(-82.467 -75.095)"/><path id="Path_7" d="M285.488,46.921c-18.647-3.526-12.432-18.337-1.828-18.337h17.185L303.038,24h-22.3c-6.581,0-20.841,6.347-19.013,18.689.731,8.111,6.581,11.284,17.185,14.105,18.282,4.232,12.432,16.926,4.388,16.926H263.55l2.194,4.937h18.647c9.872,0,18.647-6.7,18.647-16.221C302.673,52.563,297.188,49.037,285.488,46.921Z" class="cls-1" data-name="Path 7" transform="translate(-160.85 -11.005)"/><rect id="Rectangle_8" width="141" height="67" class="cls-2" data-name="Rectangle 8" transform="translate(8 7)"/></g></svg>