<svg xmlns="http://www.w3.org/2000/svg" xmlns:odm="http://product.corel.com/CGS/11/cddns/" width="399" height="204" viewBox="0 0 400 204" xml:space="preserve" style="shape-rendering:geometricPrecision;text-rendering:geometricPrecision;image-rendering:optimizeQuality;fill-rule:evenodd"><defs><style type="text/css">.str0{stroke:#000;stroke-width:7}.fil1{fill:none}.fil0{fill:#000}</style></defs><g id="Layer 1"><rect width="33" height="154" x="145" y="24" class="fil0"/><rect width="33" height="154" x="216" y="24" class="fil0"/><path d="M27 24l37 0 39 155 -37 0 -39 -155z" class="fil0"/><path d="M131 24l-20 0c-1,1 -1,4 0,5 2,6 1,13 0,19l-30 131 15 0 35 -155z" class="fil0"/><path d="M220 123l-73 0 -9 14 58 0c9,0 21,-7 24,-14z" class="fil0"/><path d="M327 89c-51,-10 -34,-52 -5,-52l47 0 6 -13 -61 0c-18,0 -57,18 -52,53 2,23 18,32 47,40 50,12 34,48 12,48l-54 0 6 14 51 0c27,0 51,-19 51,-46 -1,-28 -16,-38 -48,-44z" class="fil0"/><rect width="386" height="190" x="8" y="7" class="fil1 str0"/></g></svg>